<svg id="Warstwa_1" data-name="Warstwa 1" xmlns="http://www.w3.org/2000/svg" viewBox="0 0 452.11 444.35" style="fill:#3d25bd"><title>black1</title><path d="M-664.2,577.8a5.9,5.9,0,0,0,.9-5.3l-55.3-177.2a6,6,0,0,0-5.7-4.2h-103v12h9.7l9.2,57.4a6.09,6.09,0,0,0,5.9,5.1h93.2l13.5,43.3H-889.3a6,6,0,0,0-6,6v53.4H-958l5-88.4a6,6,0,0,0-5.7-6.3h-109.7l24-70.5h98.7v-12h-103a6,6,0,0,0-5.7,4.1l-60.4,177.2a6,6,0,0,0,3.7,7.6,6.28,6.28,0,0,0,1.9.3h440A6.44,6.44,0,0,0-664.2,577.8ZM-797.3,453.5l-8.1-50.5h76.7l15.8,50.5Zm-275.1,32h107.1l-4.7,82.8h-130.7Zm189.2,82.7V520.8H-692l14.8,47.4Z" transform="translate(1115.14 -135.95)"/><path d="M-797.3,173.5a127.47,127.47,0,0,0-180.3-.4l-.4.4a135.64,135.64,0,0,0-39.1,86.9c-2,30.5,7.6,62.1,27.3,89l97.3,130.1a5.94,5.94,0,0,0,8.4,1.2,4.56,4.56,0,0,0,1.2-1.2l97.3-130.1c19.7-26.3,29.4-57.9,27.3-89A136,136,0,0,0-797.3,173.5Zm2.1,168.7-92.5,123.7-92.5-123.6c-18-24.6-26.8-53.4-25-81.1A123.41,123.41,0,0,1-969.6,182a115.46,115.46,0,0,1,163.3-.4l.4.4a123.41,123.41,0,0,1,35.6,79.2c2,28.2-6.9,57-24.9,81Z" transform="translate(1115.14 -135.95)"/><path d="M-889,172.1A95.94,95.94,0,0,0-985,268a95.89,95.89,0,0,0,36.4,75.2,3.45,3.45,0,0,0,1.2.9,95.75,95.75,0,0,0,117,0l1.2-.9a96,96,0,0,0,15.6-134.8A96.8,96.8,0,0,0-889,172.1Zm-48.1,164.8A53,53,0,0,1-867,310.8a53,53,0,0,1,26.1,26.1A83.93,83.93,0,0,1-937.1,336.9Zm105.7-7.8a64.84,64.84,0,0,0-87.4-27.8,64.88,64.88,0,0,0-27.8,27.8,83.93,83.93,0,0,1-3.5-118.7,84,84,0,0,1,118.7-3.5,83.93,83.93,0,0,1,3.5,118.7C-829,326.8-830.2,328-831.4,329.1Z" transform="translate(1115.14 -135.95)"/><path d="M-889,213.8a36,36,0,0,0-36,36,36,36,0,0,0,36,36,36,36,0,0,0,36-36A36.11,36.11,0,0,0-889,213.8Zm0,60a23.94,23.94,0,0,1-24-24,23.94,23.94,0,0,1,24-24,23.94,23.94,0,0,1,24,24A24,24,0,0,1-889,273.8Z" transform="translate(1115.14 -135.95)"/></svg>