<svg id="Warstwa_1" data-name="Warstwa 1" xmlns="http://www.w3.org/2000/svg" viewBox="0 0 460.29 390.72" style="fill:#3d25bd"><title>black2</title><path d="M-1315.4,26.9-1341-49.8a.1.1,0,0,0-.1-.1c-.1-.2-.1-.4-.2-.6a.35.35,0,0,0-.1-.2l-.3-.6a.1.1,0,0,0-.1-.1,2.65,2.65,0,0,0-.5-.6c0-.1-.1-.1-.1-.2l-.3-.3-143.2-143.2a7.06,7.06,0,0,0-9.9,0l-51.1,51.1a7.06,7.06,0,0,0,0,9.9l46.4,46.4,14,14,45.9,45.9-43.8,38.5-85.1,72.1a28.93,28.93,0,0,1-37.5,0l-153.6-130-3.1-2.6a7,7,0,0,0-6.4-1.4,7.19,7.19,0,0,0-4.8,4.5h0a6.15,6.15,0,0,0-.3,3.3,6.69,6.69,0,0,0,2.4,4.3l11.5,9.8L-1616.1,93a43,43,0,0,0,55.6,0l85.1-72.2.1-.1,44.5-39.2,15.3,15.3,11.6,11.6.3.3.2.2a4.23,4.23,0,0,0,.7.5h0a2.51,2.51,0,0,0,.7.4.35.35,0,0,0,.2.1c.1.1.3.1.4.2s.1.1.2.1h.1l76.7,25.6a7.11,7.11,0,0,0,7.2-1.7A6.76,6.76,0,0,0-1315.4,26.9ZM-1532-139.6l41.2-41.2,18.2,18.2-41.2,41.2Zm28.2,28.1,41.2-41.2,105.2,105.2L-1378-26.9l-20.6,20.6ZM-1385.7.5l35.1-35.1,17.6,52.7Z" transform="translate(1775.3 197.72)"/><path d="M-1401.2,10.1v136a46.33,46.33,0,0,1-10.9,30,7,7,0,0,1-1.3,1.7,4.44,4.44,0,0,1-1.1.8,46.73,46.73,0,0,1-33.8,14.4H-1728a46.73,46.73,0,0,1-33.8-14.4,3.92,3.92,0,0,1-1-.8,5.94,5.94,0,0,1-1.3-1.8,46.24,46.24,0,0,1-10.8-30V-41.3a24.37,24.37,0,0,1,.1-2.7l.3-3.3h0a47,47,0,0,1,46.6-41h227.7l14,14H-1728a33,33,0,0,0-33,33V146a33,33,0,0,0,4,15.7l83.6-85.5a7,7,0,0,1,9.9-.1,7,7,0,0,1,.1,9.9l-84.4,86.3a32.74,32.74,0,0,0,19.8,6.6h279.8a32.45,32.45,0,0,0,19.7-6.6L-1513.4,86a7,7,0,0,1,.1-9.9,7,7,0,0,1,9.9.1l84.1,85.5a32.27,32.27,0,0,0,4-15.8V-3.1l11.6,11.6.3.3.2.2a4.23,4.23,0,0,0,.7.5h0a2.51,2.51,0,0,0,.7.4.35.35,0,0,0,.2.1A.76.76,0,0,1-1401.2,10.1Z" transform="translate(1775.3 197.72)"/></svg>