<svg id="Warstwa_1" data-name="Warstwa 1" xmlns="http://www.w3.org/2000/svg" viewBox="0 0 265.8 447.1" style="fill:#fff"><title>black3</title><path d="M-1286.9,17.1a6.88,6.88,0,0,1-5.3-2.5L-1304.4.3a7,7,0,0,1,.8-9.9,7,7,0,0,1,9.9.8l7.8,9.1,23.1-18.8a6.9,6.9,0,0,1,6.9-1.1,7.14,7.14,0,0,1,4.4,5.4,7,7,0,0,1-2.5,6.5l-28.4,23.1A7,7,0,0,1-1286.9,17.1Z" transform="translate(1411.7 225)"/><path d="M-1278.8,60.4a61.88,61.88,0,0,1-61.9-61.9,61.88,61.88,0,0,1,61.9-61.9,61.88,61.88,0,0,1,61.9,61.9A61.88,61.88,0,0,1-1278.8,60.4Zm0-109.8a47.91,47.91,0,0,0-47.9,47.9,47.91,47.91,0,0,0,47.9,47.9,47.91,47.91,0,0,0,47.9-47.9A47.78,47.78,0,0,0-1278.8-49.4Z" transform="translate(1411.7 225)"/><path d="M-1185-225h-187.6a39.16,39.16,0,0,0-39.1,39.1V183a39.16,39.16,0,0,0,39.1,39.1H-1185a39.16,39.16,0,0,0,39.1-39.1V-185.9A39.09,39.09,0,0,0-1185-225Zm-212.6,74.1h237.8V123.7h-237.8Zm25-60.1H-1185a25.12,25.12,0,0,1,25.1,25.1v21h-237.8v-21A25.18,25.18,0,0,1-1372.6-211ZM-1185,208h-187.6a25.12,25.12,0,0,1-25.1-25.1V137.6h237.8v45.3A25.05,25.05,0,0,1-1185,208Z" transform="translate(1411.7 225)"/><path d="M-1250.5,166.1h-56.6a7,7,0,0,0-7,7,7,7,0,0,0,7,7h56.6a7,7,0,0,0,7-7A7,7,0,0,0-1250.5,166.1Z" transform="translate(1411.7 225)"/><path d="M-1185.4-8.5h-10.5a7,7,0,0,0-7,7,7,7,0,0,0,7,7h10.5a7,7,0,0,0,7-7A7,7,0,0,0-1185.4-8.5Z" transform="translate(1411.7 225)"/><path d="M-1361.7,5.5a7,7,0,0,0,7-7,7,7,0,0,0-7-7h-10.5a7,7,0,0,0-7,7,7,7,0,0,0,7,7Z" transform="translate(1411.7 225)"/><path d="M-1188.2,22.3l-14.6-5a7,7,0,0,0-8.9,4.3,7,7,0,0,0,4.3,8.9l14.6,5a7.16,7.16,0,0,0,6.9-1.3,6.91,6.91,0,0,0,2.3-6.6A6.75,6.75,0,0,0-1188.2,22.3Z" transform="translate(1411.7 225)"/><path d="M-1350.2-33.5l-14.6-5a7.16,7.16,0,0,0-6.9,1.3,6.91,6.91,0,0,0-2.3,6.6,6.92,6.92,0,0,0,4.6,5.3l14.6,5a7,7,0,0,0,8.9-4.3A6.91,6.91,0,0,0-1350.2-33.5Z" transform="translate(1411.7 225)"/><path d="M-1204.4-17.6a7.61,7.61,0,0,0,2.1-.3l14.8-4.6a7.07,7.07,0,0,0,4.8-5.1,6.82,6.82,0,0,0-2.1-6.7,6.82,6.82,0,0,0-6.8-1.5l-14.8,4.6a6.85,6.85,0,0,0-4.8,7.7A6.9,6.9,0,0,0-1204.4-17.6Z" transform="translate(1411.7 225)"/><path d="M-1355.2,15l-14.8,4.6a7.07,7.07,0,0,0-4.8,5.1,6.82,6.82,0,0,0,2.1,6.7,6.82,6.82,0,0,0,6.8,1.5l14.8-4.6a7,7,0,0,0,4.6-8.8A6.92,6.92,0,0,0-1355.2,15Z" transform="translate(1411.7 225)"/></svg>