<svg id="Warstwa_1" data-name="Warstwa 1" xmlns="http://www.w3.org/2000/svg" viewBox="0 0 494.1 448.3"><title>black5</title><path d="M-730.2-130.1h-7.2a7,7,0,0,0-7,7,7,7,0,0,0,7,7h7.2a7,7,0,0,0,7-7A7,7,0,0,0-730.2-130.1Z" transform="translate(1126.1 517.3)"/><path d="M-661.1-183.9l-12.2-4.1,14.4-1.8a7,7,0,0,0,6.1-7.8c0-.2-.1-.4-.1-.6L-670.2-282a24.15,24.15,0,0,0,9.5-25.4,19.42,19.42,0,0,0-11.2-13.4l.1-17.5h0V-349a82,82,0,0,0-81.6-82.4,82,82,0,0,0-82.4,81.6v.3l.1,25.7v.2l.1,3a19.48,19.48,0,0,0-11.1,13.4,23.91,23.91,0,0,0,11.5,26.6l-21.9,82.2a7,7,0,0,0,5,8.6h.1a138.68,138.68,0,0,0,15.9,2.6l-10.1,3.4a48.27,48.27,0,0,0-8.9,4.2l7.4,11.9a27.28,27.28,0,0,1,6-2.8l28.8-9.8,52.3,50.8V-106h-54.8v14H-639a7,7,0,0,0,7-7v-44.3A42.74,42.74,0,0,0-661.1-183.9Zm-115.7-24.8a66.26,66.26,0,0,0,16.6,2.1h13.1a66.26,66.26,0,0,0,16.6-2.1v8l-23.1,23-23.1-23Zm30,44,25-25,12.5,4.2L-746.8-149Zm47.4-32.2,3.9-4.8,10.8,9.8Zm24.5-5.1-16.7-15.1a7,7,0,0,0-9.9.5c-.1.1-.2.2-.2.3l-11.8,14.5-3.1-1V-214A77.44,77.44,0,0,0-695-230.6a81.41,81.41,0,0,0,15.9-26.1l11.1,54Zm-59.5-144.5q4.05-3.45,7.8-7.2c10.5,11.2,20.8,16.4,40.7,21v6.4A84.53,84.53,0,0,1-734.4-346.5Zm-19.4-71.1a68,68,0,0,1,68,68v2.5c-16.6-4.1-23.7-8.5-31.6-17.3a147.16,147.16,0,0,0,9.8-14.9,7,7,0,0,0-2.6-9.6,7,7,0,0,0-9.6,2.6.1.1,0,0,1-.1.1c-26,46-63.5,48.1-81.5,49.1h-.3c-5.2.3-10.2,3.9-12.8,9.4a4.1,4.1,0,0,1-2.1,2,4.27,4.27,0,0,1-5-.9l-.3-.3-.1-22.8A68.22,68.22,0,0,1-753.8-417.6ZM-833.2-304a6,6,0,0,1,5.3-4.5,6.8,6.8,0,0,0,5.3-3.3,18.37,18.37,0,0,0,20.8-9.9,4.43,4.43,0,0,1,1.2-1.5h.1c11.6-.7,32.9-1.8,54.5-15a98.14,98.14,0,0,0,60.9,25.9,7.06,7.06,0,0,0,5.6,3.8,5.86,5.86,0,0,1,5.3,4.5,10,10,0,0,1-7.4,12.1,1.27,1.27,0,0,1-.6.1,7.07,7.07,0,0,0-5.8,6.9v.1A67.6,67.6,0,0,1-705.4-240c-11.3,12.5-26.2,19.4-41.8,19.4h-13.1c-15.6,0-30.4-6.9-41.8-19.4a67.41,67.41,0,0,1-17.4-44.8v-.1a7,7,0,0,0-5.8-6.9,10,10,0,0,1-8.1-11.6c.1-.2.1-.4.2-.6Zm5.5,48.8a82.6,82.6,0,0,0,15.3,24.6A73,73,0,0,0-790.8-214v11.2l-5.7,1.9c-2.6,0-5.3-.1-7.8-.2h-.7l-.8-14.7a7,7,0,0,0-7.4-6.6,6.94,6.94,0,0,0-4.7,2.2l-17.8,18.8c-2.3-.3-4.3-.6-6-.8Zm8.8,56.4.3,4.9a.75.75,0,0,0,.1.5l-8,2.7Zm20.7,13.3,12.5-4.2,24.9,24.8v15.8ZM-646-106.1H-746.8v-23.4l52.4-51,28.8,9.8A28.93,28.93,0,0,1-646-143.4Z" transform="translate(1126.1 517.3)"/><path d="M-808.6-76v-49.3a53.5,53.5,0,0,0-1.4-12.6c-.2-.7-.4-1.5-.6-2.2a58,58,0,0,0-38.6-39.7l-67.5-21.9v-30.5a98.71,98.71,0,0,0,46.1-65.9l3.9-13.5a31.82,31.82,0,0,0,20.9-37.7,25.09,25.09,0,0,0-16.3-18v-44.4A105.29,105.29,0,0,0-967-517.3a105.29,105.29,0,0,0-105.6,104.9v45.1a25.06,25.06,0,0,0-16.3,18.1,31.73,31.73,0,0,0,20.9,37.7l3.9,13.5a98.71,98.71,0,0,0,46.1,65.9v30.5l-67.5,21.9c-19,6.2-33.4,21-38.6,39.7-.2.7-.4,1.5-.6,2.2a59.33,59.33,0,0,0-1.4,12.6V-76a7,7,0,0,0,7,7h303.4A7,7,0,0,0-808.6-76ZM-958.9-409.5c8.7,9.2,35.5,33.1,82.8,38v2.9c-18.6-.5-72.4-4.6-115.4-34.7A271.77,271.77,0,0,0-958.9-409.5Zm-99.6-2.3a91.33,91.33,0,0,1,91-91.6,91.33,91.33,0,0,1,91.6,91v26.8c-34.3-4-56.5-19.1-67.3-28.5,16.1-5.3,31.8-12.8,45.2-23a7,7,0,0,0,1.2-9.8,7,7,0,0,0-9.7-1.3c-48.9,37.5-136.2,33.5-137.1,33.5a6.89,6.89,0,0,0-7.3,6.6h0l-1.6,35.7a6,6,0,0,1-3.2,5.1,7.86,7.86,0,0,1-2.6.8Zm8.1,110.7a2.54,2.54,0,0,0-.2-.7l-4.9-16.9a7,7,0,0,0-5.7-5.7,17.62,17.62,0,0,1-14.3-20.5c.1-.4.1-.7.2-1.1a11.11,11.11,0,0,1,7.9-8.3,20.14,20.14,0,0,0,26.8-9.7,20.3,20.3,0,0,0,1.9-7.7l1.3-28.8c5.8.1,14.8,0,25.8-.8,57.7,49.4,139.4,46.8,142.9,46.7h.4a11.23,11.23,0,0,1,9,8.6,17.71,17.71,0,0,1-13,21.4,4.25,4.25,0,0,1-1.1.2,7,7,0,0,0-5.7,5.7l-4.9,16.9a6.39,6.39,0,0,0-.2.7,84.55,84.55,0,0,1-98.7,67.5,84.38,84.38,0,0,1-67.5-67.5Zm83.1,83a98.23,98.23,0,0,0,36.7-7.1v24.4a85.75,85.75,0,0,1-73.4,0v-24.4A100.25,100.25,0,0,0-967.3-218.1ZM-822.6-83H-1112v-42.3a42.29,42.29,0,0,1,1-9.4c.1-.6.3-1.1.4-1.7a44.35,44.35,0,0,1,29.4-30.1l69.5-22.5a99.76,99.76,0,0,0,88.8,0l69.5,22.5A44.18,44.18,0,0,1-824-136.4a10.46,10.46,0,0,1,.4,1.7,42.92,42.92,0,0,1,1,9.4Z" transform="translate(1126.1 517.3)"/></svg>