<svg height="512pt" viewBox="-98 0 512 512" width="512pt" xmlns="http://www.w3.org/2000/svg"><path d="m316.464844 158.234375c0-87.25-70.980469-158.234375-158.230469-158.234375s-158.234375 70.984375-158.234375 158.234375c0 74.636719 51.945312 137.371094 121.582031 153.949219v30.863281c-11.414062 1.277344-20.316406 10.988281-20.316406 22.738281v89.246094c0 31.414062 25.554687 56.96875 56.96875 56.96875 31.410156 0 56.964844-25.554688 56.964844-56.96875v-89.246094c0-11.75-8.902344-21.460937-20.3125-22.738281v-30.863281c69.632812-16.578125 121.578125-79.3125 121.578125-153.949219zm-296.464844 0c0-76.222656 62.011719-138.234375 138.234375-138.234375 76.21875 0 138.230469 62.011719 138.230469 138.234375 0 76.21875-62.011719 138.234375-138.230469 138.234375-76.222656 0-138.234375-62.015625-138.234375-138.234375zm175.199219 296.796875c0 20.382812-16.582031 36.96875-36.964844 36.96875-20.386719 0-36.96875-16.585938-36.96875-36.96875v-89.246094c0-1.589844 1.292969-2.882812 2.878906-2.882812h68.175781c1.585938 0 2.878907 1.292968 2.878907 2.882812zm-20.316407-112.128906h-33.300781v-27.304688c5.472657.574219 11.027344.871094 16.648438.871094 5.625 0 11.179687-.296875 16.652343-.871094zm0 0"/><path d="m271.007812 158.234375c0-62.183594-50.589843-112.773437-112.773437-112.773437-18.886719 0-37.578125 4.761718-54.046875 13.769531-4.84375 2.652343-6.625 8.730469-3.972656 13.574219 2.648437 4.84375 8.726562 6.625 13.570312 3.972656 13.535156-7.402344 28.90625-11.316406 44.449219-11.316406 51.152344 0 92.773437 41.617187 92.773437 92.773437 0 51.152344-41.621093 92.773437-92.773437 92.773437-51.15625 0-92.773437-41.617187-92.773437-92.773437 0-10.21875 1.648437-20.257813 4.898437-29.835937 1.773437-5.230469-1.027344-10.90625-6.257813-12.683594-5.226562-1.773438-10.90625 1.027344-12.683593 6.257812-3.953125 11.648438-5.957031 23.851563-5.957031 36.261719 0 62.183594 50.589843 112.773437 112.773437 112.773437 62.179687 0 112.773437-50.589843 112.773437-112.773437zm0 0"/><path d="m79.8125 101.816406h.023438c5.523437 0 9.988281-4.476562 9.988281-10 0-5.523437-4.488281-10-10.011719-10s-10 4.476563-10 10c0 5.523438 4.476562 10 10 10zm0 0"/><path d="m235.15625 128.96875-6.285156-17.425781c-1.707032-4.730469-6.660156-7.453125-11.566406-6.371094l-18.746094 4.148437c-11.003906 2.4375-10.121094 18.503907 1.097656 19.703126l-5.992188 12.746093c-1.492187 3.175781-5.816406 3.570313-7.863281.722657-5.765625-8.035157-15.707031-11.738282-25.328125-9.433594-9.621094 2.308594-16.804687 10.117187-18.300781 19.894531l-1.433594 9.363281c-.421875 2.757813-2.410156 4.007813-3.246093 4.414063-4.109376 2.011719-7.171876-1.527344-8.898438-2.054688-11.714844-6.539062-26.546875-1.871093-32.40625 10.199219l-8.289062 17.089844c-2.414063 4.96875-.339844 10.953125 4.628906 13.363281 4.960937 2.40625 10.949218.34375 13.363281-4.632813l8.292969-17.089843c.839844-1.734375 2.96875-2.414063 4.664062-1.46875 1.21875.386719 12.902344 9.664062 27.433594 2.5625 7.621094-3.730469 12.941406-10.964844 14.226562-19.355469l1.433594-9.363281c.574219-3.746094 5.378906-4.941407 7.613282-1.828125 5.136718 7.15625 13.441406 10.949218 22.214843 10.144531 8.773438-.808594 16.246094-6.046875 19.996094-14.019531l5.753906-12.242188c2.539063 3.683594 7.28125 5.292969 11.621094 3.730469 5.195313-1.871094 7.886719-7.601563 6.015625-12.796875zm0 0"/></svg>