<svg id="Layer_1" enable-background="new 0 0 512.002 512.002" height="512" viewBox="0 0 512.002 512.002" width="512" xmlns="http://www.w3.org/2000/svg"><g><path d="m63.632 319.633c0 106.026 86.047 192.369 192.369 192.369 70.149 0 135.435-38.295 169.344-101.042 1.969-3.644.611-8.194-3.033-10.164-3.646-1.97-8.193-.612-10.164 3.033-5.008 9.268-10.775 17.96-17.182 26.038-13.382-9.465-27.526-17.462-42.268-23.936 6.767-24.258 10.609-51.016 11.197-78.797h69.314c-.65 15.596-3.323 30.959-7.981 45.771-1.243 3.951.953 8.162 4.904 9.404 3.955 1.245 8.162-.953 9.404-4.904 5.862-18.639 8.834-38.076 8.834-57.771 0-49.798-19.506-99.573-57.204-136.852 28.828-16.792 48.681-48.263 48.681-84.727 0-15.937-3.919-31.769-11.332-45.785-1.937-3.661-6.472-5.061-10.137-3.123-3.661 1.937-5.06 6.475-3.123 10.137 6.275 11.863 9.592 25.27 9.592 38.771 0 32.817-19.791 62.883-49.626 76.038-.001 0-.002.001-.002.001-4.249 1.87-12.026 3.977-16.44 13.452l-16.985 36.446-16.985-36.447c-2.568-5.509-7.122-9.754-12.822-11.946-31.74-12.207-53.594-43.43-53.242-78.398.448-44.697 37.172-81.567 81.861-82.191 19.362-.268 38.823 6.25 54.442 19.318 3.177 2.656 7.907 2.237 10.564-.94 2.658-3.177 2.237-7.907-.939-10.565-17.975-15.039-40.805-23.146-64.278-22.813-53.017.74-96.119 44.013-96.652 97.039-.105 10.471 1.497 20.703 4.564 30.383-103.264 4.086-184.675 89.292-184.675 192.201zm308.741-125.752c.82-1.757 2.303-3.297 4.351-4.169 2.868 2.665 5.678 5.475 8.353 8.313-6.631 4.618-13.504 8.878-20.58 12.756zm-18.01 38.645c14.21-6.362 27.828-14.096 40.58-23.1 23.149 29.195 36.661 65.126 38.254 102.708h-69.307c-.583-26.854-4.282-53.338-10.809-77.291.611-.902.888-1.471 1.282-2.317zm30.736 208.727c-21.167 22.462-47.877 39.132-77.838 48.176 19.003-18.096 32.399-44.042 40.969-69.073 12.82 5.746 25.153 12.723 36.869 20.897zm-121.598-284.223c10.718 14.164 25.654 25.858 43.099 32.568 2.055.791 3.692 2.312 4.611 4.283l15.519 33.302c-20.408 6.725-41.612 10.464-63.229 11.167zm0 96.323c24.987-.763 49.464-5.34 72.914-13.644.852.36 1.744.636 2.668.818 5.893 22.229 9.24 46.728 9.803 71.605h-85.385zm0 73.78h85.391c-.567 25.83-4.057 50.66-10.185 73.175-23.921-8.74-49.209-13.612-75.206-14.399zm0 73.781c24.493.79 48.309 5.45 70.823 13.769-11.591 34.233-35.324 76.169-70.823 81.722zm-58.751-251.084c-19.004 18.094-32.405 44.042-40.978 69.081-12.797-5.736-25.109-12.699-36.806-20.854 20.653-21.908 47.184-38.992 77.784-48.227zm-87.64 59.621c13.36 9.442 27.479 17.422 42.194 23.884-6.767 24.258-10.609 51.016-11.197 78.798h-69.305c1.618-38.698 15.69-74.228 38.308-102.682zm0 220.364c-22.619-28.453-36.689-63.984-38.308-102.682h69.306c.587 27.782 4.429 54.539 11.197 78.797-14.716 6.463-28.835 14.442-42.195 23.885zm9.865 11.389c11.695-8.152 24.003-15.113 36.798-20.848 8.573 25.039 21.974 50.984 40.97 69.073-29.887-9.024-56.584-25.754-77.768-48.225zm121.526 55.201c-35.499-5.553-59.231-47.484-70.824-81.722 22.514-8.319 46.33-12.979 70.824-13.769zm0-110.495c-25.998.786-51.286 5.658-75.207 14.399-6.128-22.516-9.617-47.346-10.185-73.175h85.392zm0-73.777h-85.391c.567-25.83 4.057-50.66 10.185-73.176 23.921 8.74 49.209 13.612 75.207 14.399v58.777zm0-169.272v95.492c-24.494-.79-48.31-5.45-70.824-13.769 11.592-34.235 35.327-76.171 70.824-81.723z"/><path d="m341.793 35.778c-34.339 0-62.275 27.937-62.275 62.275s27.937 62.275 62.275 62.275 62.275-27.937 62.275-62.275-27.937-62.275-62.275-62.275zm0 109.551c-26.067 0-47.275-21.208-47.275-47.275s21.208-47.275 47.275-47.275 47.275 21.208 47.275 47.275-21.208 47.275-47.275 47.275z"/></g></svg>