<svg id="Warstwa_1" data-name="Warstwa 1" xmlns="http://www.w3.org/2000/svg" viewBox="0 0 493.07 369.76"><path d="M398.5,45.45V145h-14V45.45A31.5,31.5,0,0,0,353,14H45.5A31.49,31.49,0,0,0,14,45.45V253a31.49,31.49,0,0,0,31.5,31.45H61.1A20.18,20.18,0,0,1,81.17,301c5.5,31.17,21.84,45.52,31.37,51.39,0-.4.07-.8.11-1.21,1-10.7,2.51-26.88,9.86-40.61,9.26-17.3,25-26.07,46.88-26.07h77.28v14H169.39c-34.84,0-40.25,26.67-42.8,54A70.37,70.37,0,0,1,125,363.74c-1.32,4.73-4.78,5.73-6.2,5.94a6.35,6.35,0,0,1-1.07.08,7.1,7.1,0,0,1-3.54-.94c-6.74-2.58-38.28-17.1-46.82-65.41a6.31,6.31,0,0,0-6.28-4.94H45.5A45.5,45.5,0,0,1,0,253V45.45A45.5,45.5,0,0,1,45.5,0H353.08A45.5,45.5,0,0,1,398.5,45.45Z" transform="translate(0 0)"/><path d="M493,251.87c-.42,11.22-10,19.93-21.22,19.93H459a6.17,6.17,0,0,1-6.25-5.8,6,6,0,0,1,5.79-6.13H472a8.94,8.94,0,0,0,9-8.12,8.74,8.74,0,0,0-8.12-9.32H405.76a18.14,18.14,0,0,1-18-16.19,66.45,66.45,0,0,1,3.74-30.48,66.52,66.52,0,0,0,4.28-23.56v-5.39a20.57,20.57,0,0,0-15.45-19.94l-2.11,13.77a139.71,139.71,0,0,1-24.63,60.26,45.17,45.17,0,0,1-36.45,18.59H303.31a6.17,6.17,0,0,1-6.25-5.8,6,6,0,0,1,5.79-6.2h14.29a33.17,33.17,0,0,0,26.73-13.62,127.8,127.8,0,0,0,22.49-55l3-19.49a6,6,0,0,1,5.93-5.09h.1a26.06,26.06,0,0,1,13.33,3.87l6.86,4.15a20.86,20.86,0,0,1,6.28,5.77,32.37,32.37,0,0,1,6,18.76v5.39a78.86,78.86,0,0,1-5,27.78,54.29,54.29,0,0,0-3.14,24.9,6.15,6.15,0,0,0,6.12,5.49h66.51a20.75,20.75,0,0,1,20.72,20.78h0A4.08,4.08,0,0,0,493,251.87Z" transform="translate(0 0)"/><path d="M343.5,185.35a7,7,0,0,0,0-14H231.26a7,7,0,0,0,0,14Z" transform="translate(0 0)"/><path d="M215,178.35a7,7,0,0,0-7-7H111.5a7,7,0,0,0,0,14H208a7,7,0,0,0,7-7Z" transform="translate(0 0)"/><path d="M55.07,185.35H89a7,7,0,1,0,0-14H55.07a7,7,0,1,0,0,14Z" transform="translate(0 0)"/><path d="M310.74,130.28a7,7,0,0,0,7,7H343.5a7,7,0,0,0,0-14H317.74A7,7,0,0,0,310.74,130.28Z" transform="translate(0 0)"/><path d="M238.65,123.28a7,7,0,0,0,0,14H295.4a7,7,0,0,0,0-14Z" transform="translate(0 0)"/><path d="M55.07,137.28H216a7,7,0,0,0,0-14H55.07a7,7,0,1,0,0,14Z" transform="translate(0 0)"/><path d="M343.5,79.6a7,7,0,0,0,0-14H322.7a7,7,0,0,0,0,14Z" transform="translate(0 0)"/><path d="M306.84,72.6a7,7,0,0,0-7-7H101.29a7,7,0,1,0,0,14H299.84A7,7,0,0,0,306.84,72.6Z" transform="translate(0 0)"/><path d="M55.07,79.6H78.66a7,7,0,0,0,0-14H55.07a7,7,0,1,0,0,14Z" transform="translate(0 0)"/><path d="M199.09,233.42H221a7,7,0,0,0,0-14H199.09a7,7,0,0,0,0,14Z" transform="translate(0 0)"/><path d="M55.07,233.42H175.58a7,7,0,0,0,0-14H55.07a7,7,0,0,0,0,14Z" transform="translate(0 0)"/><path d="M493,282.14a22.26,22.26,0,0,0-22.24-22.27H449.07a6,6,0,0,0,0,12h21.69a10.24,10.24,0,0,1,0,20.48H449.07a6,6,0,0,0,0,12h22.18a9.75,9.75,0,0,1,0,19.5h-32a6,6,0,0,0,0,12H464a9.68,9.68,0,1,1,.2,19.36h-55.7c-15.61,0-30.65-.64-43.1-8.36A93.74,93.74,0,0,0,316,332.76h-7V212.87a6,6,0,0,0-6-6H246.67a6,6,0,0,0-6,6V357.08a6,6,0,0,0,6,6H303a6,6,0,0,0,6-6v-12.3h7a81.74,81.74,0,0,1,43.1,12.28c15.14,9.39,32,10.17,49.43,10.17h55.5a21.66,21.66,0,0,0,17.75-34.11,21.72,21.72,0,0,0,4.27-34.89A22.2,22.2,0,0,0,493,282.14ZM297,351.08H252.67V218.87H297Z" transform="translate(0 0)"/></svg>