<svg height="512pt" viewBox="0 0 512 512.00002" width="512pt" xmlns="http://www.w3.org/2000/svg"><path d="m417.980469 459.1875c-.535157-2.78125-2.414063-5.113281-5.019531-6.230469l-59.730469-25.597656c-2.980469-1.277344-6.425781-.753906-8.890625 1.34375-2.46875 2.101563-3.535156 5.417969-2.75 8.5625l17.066406 68.265625c.738281 2.980469 3.019531 5.332031 5.972656 6.160156.75.207032 1.527344.308594 2.304688.308594 2.261718 0 4.433594-.898438 6.03125-2.5l15.300781-15.300781 15.300781 15.300781c3.347656 3.234375 8.671875 3.1875 11.960938-.105469 3.292968-3.289062 3.339844-8.613281.105468-11.960937l-15.300781-15.300782 15.300781-15.300781c2.003907-2 2.882813-4.863281 2.347657-7.644531zm-46.421875 27.589844-9.242188-36.960938 32.332032 13.859375zm0 0"/><path d="m324.265625 486.398438c4.714844 0 8.535156-3.820313 8.535156-8.53125 0-4.714844-3.820312-8.535157-8.535156-8.535157h-17.066406c-4.710938 0-8.53125 3.820313-8.53125 8.535157 0 4.710937 3.820312 8.53125 8.53125 8.53125zm0 0"/><path d="m273.066406 486.398438c4.714844 0 8.535156-3.820313 8.535156-8.53125 0-4.714844-3.820312-8.535157-8.535156-8.535157-4.710937 0-8.53125-3.820312-8.53125-8.53125 0-4.714843-3.824218-8.535156-8.535156-8.535156s-8.535156 3.820313-8.535156 8.535156c0 14.136719 11.464844 25.597657 25.601562 25.597657zm0 0"/><path d="m256 435.199219c4.710938 0 8.535156-3.820313 8.535156-8.53125v-17.066407c0-4.714843-3.824218-8.535156-8.535156-8.535156s-8.535156 3.820313-8.535156 8.535156v17.066407c0 4.710937 3.824218 8.53125 8.535156 8.53125zm0 0"/><path d="m187.734375 204.800781c-4.714844 0-8.535156-3.820312-8.535156-8.535156 0-4.710937-3.820313-8.53125-8.53125-8.53125-4.714844 0-8.535157 3.820313-8.535157 8.53125 0 14.140625 11.460938 25.601563 25.601563 25.601563 13.988281-.355469 25.246094-11.613282 25.597656-25.601563 0-13.804687-12.59375-20.09375-21.785156-24.703125-7.226563-3.609375-12.347656-6.410156-12.347656-9.429688.289062-4.585937 3.945312-8.246093 8.535156-8.53125 4.710937 0 8.53125 3.820313 8.53125 8.53125 0 4.714844 3.820313 8.535157 8.535156 8.535157 4.710938 0 8.53125-3.820313 8.53125-8.535157 0-14.136718-11.460937-25.597656-25.597656-25.597656-13.988281.351563-25.246094 11.609375-25.601563 25.597656 0 13.808594 12.597657 20.097657 21.785157 24.703126 7.230469 3.609374 12.347656 6.410156 12.347656 9.429687-.285156 4.589844-3.945313 8.246094-8.53125 8.535156zm0 0"/><path d="m264.535156 153.601562c4.710938 0 8.53125-3.820312 8.53125-8.535156 0-4.710937-3.820312-8.53125-8.53125-8.53125h-17.070312c-9.421875 0-17.066406 7.640625-17.066406 17.066406v51.199219c0 9.425781 7.644531 17.066407 17.066406 17.066407h17.070312c4.710938 0 8.53125-3.820313 8.53125-8.535157 0-4.710937-3.820312-8.53125-8.53125-8.53125h-17.070312v-17.066406h17.070312c4.710938 0 8.53125-3.820313 8.53125-8.535156 0-4.710938-3.820312-8.53125-8.53125-8.53125h-17.070312v-17.066407zm0 0"/><path d="m290.132812 166.398438v25.601562c0 16.496094 13.371094 29.867188 29.867188 29.867188s29.867188-13.371094 29.867188-29.867188v-25.601562c0-16.492188-13.371094-29.863282-29.867188-29.863282s-29.867188 13.371094-29.867188 29.863282zm17.066407 0c0-7.066407 5.730469-12.796876 12.800781-12.796876s12.800781 5.730469 12.800781 12.796876v25.601562c0 7.070312-5.730469 12.800781-12.800781 12.800781s-12.800781-5.730469-12.800781-12.800781zm0 0"/><path d="m486.398438 34.132812h-102.398438v-8.53125c0-14.140624-11.460938-25.601562-25.601562-25.601562h-204.796876c-14.140624 0-25.601562 11.460938-25.601562 25.601562v8.53125h-102.398438c-14.140624 0-25.601562 11.460938-25.601562 25.601563v307.199219c0 14.136718 11.460938 25.601562 25.601562 25.601562h187.730469c14.140625 0 25.601563-11.464844 25.601563-25.601562v-8.535156h34.132812v8.535156c0 6.789062 2.699219 13.300781 7.5 18.101562 4.800782 4.800782 11.3125 7.5 18.101563 7.5h187.730469c14.140624 0 25.601562-11.464844 25.601562-25.601562v-307.199219c0-14.140625-11.460938-25.601563-25.601562-25.601563zm-341.332032-8.53125c0-4.714843 3.820313-8.535156 8.535156-8.535156h204.796876c4.714843 0 8.535156 3.820313 8.535156 8.535156v307.199219c0 4.710938-3.820313 8.53125-8.535156 8.53125h-204.796876c-4.714843 0-8.535156-3.820312-8.535156-8.53125zm76.800782 341.332032c0 4.710937-3.820313 8.53125-8.535157 8.53125h-187.730469c-4.714843 0-8.535156-3.820313-8.535156-8.53125v-307.199219c0-4.714844 3.820313-8.535156 8.535156-8.535156h102.398438v281.601562c0 14.136719 11.460938 25.597657 25.601562 25.597657h68.265626zm273.066406 0c0 4.710937-3.820313 8.53125-8.535156 8.53125h-187.730469c-4.714844 0-8.535157-3.820313-8.535157-8.53125v-8.535156h68.265626c14.140624 0 25.601562-11.460938 25.601562-25.597657v-281.601562h102.398438c4.714843 0 8.535156 3.820312 8.535156 8.535156zm0 0"/><path d="m222.429688 90.402344-1.3125 19.976562c-.1875 2.824219 1.042968 5.558594 3.277343 7.296875 2.238281 1.738281 5.191407 2.25 7.882813 1.371094l23.722656-7.730469 23.722656 7.730469c.855469.273437 1.746094.414063 2.644532.417969 2.363281.007812 4.621093-.96875 6.238281-2.691406 1.617187-1.722657 2.449219-4.039063 2.296875-6.394532l-1.316406-19.976562 15.226562-15.71875c2.152344-2.21875 2.941406-5.425782 2.054688-8.390625-.886719-2.960938-3.304688-5.214844-6.324219-5.886719l-24.308594-5.410156-13.457031-17.519532c-1.679688-2.003906-4.160156-3.164062-6.777344-3.164062s-5.097656 1.160156-6.777344 3.164062l-13.429687 17.519532-24.3125 5.410156c-3.015625.671875-5.4375 2.925781-6.320313 5.886719-.886718 2.964843-.101562 6.171875 2.054688 8.390625zm20.097656-19.414063c1.964844-.429687 3.714844-1.542969 4.9375-3.140625l8.535156-11.152344 8.535156 11.152344c1.21875 1.59375 2.960938 2.707032 4.921875 3.140625l12.449219 2.773438-7.253906 7.484375c-1.675782 1.730468-2.542969 4.089844-2.386719 6.492187l.800781 11.179688-14.378906-4.691407c-1.71875-.558593-3.570312-.558593-5.289062 0l-14.378907 4.691407.742188-11.179688c.15625-2.402343-.710938-4.761719-2.390625-6.492187l-7.253906-7.484375zm0 0"/><path d="m170.667969 256h93.867187c4.710938 0 8.53125-3.820312 8.53125-8.535156 0-4.710938-3.820312-8.53125-8.53125-8.53125h-93.867187c-4.714844 0-8.535157 3.820312-8.535157 8.53125 0 4.714844 3.820313 8.535156 8.535157 8.535156zm0 0"/><path d="m170.667969 290.132812h170.664062c4.714844 0 8.535157-3.820312 8.535157-8.53125 0-4.714843-3.820313-8.535156-8.535157-8.535156h-170.664062c-4.714844 0-8.535157 3.820313-8.535157 8.535156 0 4.710938 3.820313 8.53125 8.535157 8.53125zm0 0"/><path d="m170.667969 324.265625h170.664062c4.714844 0 8.535157-3.820313 8.535157-8.53125 0-4.714844-3.820313-8.535156-8.535157-8.535156h-170.664062c-4.714844 0-8.535157 3.820312-8.535157 8.535156 0 4.710937 3.820313 8.53125 8.535157 8.53125zm0 0"/><path d="m85.332031 341.332031h-42.664062c-4.714844 0-8.535157 3.820313-8.535157 8.535157 0 4.710937 3.820313 8.53125 8.535157 8.53125h42.664062c4.714844 0 8.535157-3.820313 8.535157-8.53125 0-4.714844-3.820313-8.535157-8.535157-8.535157zm0 0"/><path d="m102.398438 307.199219h-59.730469c-4.714844 0-8.535157 3.820312-8.535157 8.535156 0 4.710937 3.820313 8.53125 8.535157 8.53125h59.730469c4.714843 0 8.535156-3.820313 8.535156-8.53125 0-4.714844-3.820313-8.535156-8.535156-8.535156zm0 0"/><path d="m102.398438 273.066406h-59.730469c-4.714844 0-8.535157 3.820313-8.535157 8.535156 0 4.710938 3.820313 8.53125 8.535157 8.53125h59.730469c4.714843 0 8.535156-3.820312 8.535156-8.53125 0-4.714843-3.820313-8.535156-8.535156-8.535156zm0 0"/><path d="m102.398438 238.933594h-59.730469c-4.714844 0-8.535157 3.820312-8.535157 8.53125 0 4.714844 3.820313 8.535156 8.535157 8.535156h59.730469c4.714843 0 8.535156-3.820312 8.535156-8.535156 0-4.710938-3.820313-8.53125-8.535156-8.53125zm0 0"/><path d="m102.398438 136.535156h-59.730469c-4.714844 0-8.535157 3.820313-8.535157 8.53125 0 4.714844 3.820313 8.535156 8.535157 8.535156h59.730469c4.714843 0 8.535156-3.820312 8.535156-8.535156 0-4.710937-3.820313-8.53125-8.535156-8.53125zm0 0"/><path d="m102.398438 102.398438h-59.730469c-4.714844 0-8.535157 3.820312-8.535157 8.535156 0 4.710937 3.820313 8.53125 8.535157 8.53125h59.730469c4.714843 0 8.535156-3.820313 8.535156-8.53125 0-4.714844-3.820313-8.535156-8.535156-8.535156zm0 0"/><path d="m42.667969 85.332031h34.132812c4.710938 0 8.53125-3.820312 8.53125-8.53125 0-4.714843-3.820312-8.535156-8.53125-8.535156h-34.132812c-4.714844 0-8.535157 3.820313-8.535157 8.535156 0 4.710938 3.820313 8.53125 8.535157 8.53125zm0 0"/><path d="m42.667969 221.867188h42.664062c4.714844 0 8.535157-3.820313 8.535157-8.535157 0-4.710937-3.820313-8.53125-8.535157-8.53125h-42.664062c-4.714844 0-8.535157 3.820313-8.535157 8.53125 0 4.714844 3.820313 8.535157 8.535157 8.535157zm0 0"/><path d="m42.667969 187.734375h42.664062c4.714844 0 8.535157-3.820313 8.535157-8.535156 0-4.710938-3.820313-8.53125-8.535157-8.53125h-42.664062c-4.714844 0-8.535157 3.820312-8.535157 8.53125 0 4.714843 3.820313 8.535156 8.535157 8.535156zm0 0"/><path d="m469.332031 341.332031h-51.199219c-4.710937 0-8.53125 3.820313-8.53125 8.535157 0 4.710937 3.820313 8.53125 8.53125 8.53125h51.199219c4.714844 0 8.535157-3.820313 8.535157-8.53125 0-4.714844-3.820313-8.535157-8.535157-8.535157zm0 0"/><path d="m469.332031 307.199219h-59.730469c-4.714843 0-8.535156 3.820312-8.535156 8.535156 0 4.710937 3.820313 8.53125 8.535156 8.53125h59.730469c4.714844 0 8.535157-3.820313 8.535157-8.53125 0-4.714844-3.820313-8.535156-8.535157-8.535156zm0 0"/><path d="m469.332031 273.066406h-42.664062c-4.714844 0-8.535157 3.820313-8.535157 8.535156 0 4.710938 3.820313 8.53125 8.535157 8.53125h42.664062c4.714844 0 8.535157-3.820312 8.535157-8.53125 0-4.714843-3.820313-8.535156-8.535157-8.535156zm0 0"/><path d="m469.332031 238.933594h-59.730469c-4.714843 0-8.535156 3.820312-8.535156 8.53125 0 4.714844 3.820313 8.535156 8.535156 8.535156h59.730469c4.714844 0 8.535157-3.820312 8.535157-8.535156 0-4.710938-3.820313-8.53125-8.535157-8.53125zm0 0"/><path d="m469.332031 136.535156h-59.730469c-4.714843 0-8.535156 3.820313-8.535156 8.53125 0 4.714844 3.820313 8.535156 8.535156 8.535156h59.730469c4.714844 0 8.535157-3.820312 8.535157-8.535156 0-4.710937-3.820313-8.53125-8.535157-8.53125zm0 0"/><path d="m469.332031 102.398438h-59.730469c-4.714843 0-8.535156 3.820312-8.535156 8.535156 0 4.710937 3.820313 8.53125 8.535156 8.53125h59.730469c4.714844 0 8.535157-3.820313 8.535157-8.53125 0-4.714844-3.820313-8.535156-8.535157-8.535156zm0 0"/><path d="m469.332031 68.265625h-34.132812c-4.710938 0-8.53125 3.820313-8.53125 8.535156 0 4.710938 3.820312 8.53125 8.53125 8.53125h34.132812c4.714844 0 8.535157-3.820312 8.535157-8.53125 0-4.714843-3.820313-8.535156-8.535157-8.535156zm0 0"/><path d="m469.332031 204.800781h-42.664062c-4.714844 0-8.535157 3.820313-8.535157 8.53125 0 4.714844 3.820313 8.535157 8.535157 8.535157h42.664062c4.714844 0 8.535157-3.820313 8.535157-8.535157 0-4.710937-3.820313-8.53125-8.535157-8.53125zm0 0"/><path d="m469.332031 170.667969h-42.664062c-4.714844 0-8.535157 3.820312-8.535157 8.53125 0 4.714843 3.820313 8.535156 8.535157 8.535156h42.664062c4.714844 0 8.535157-3.820313 8.535157-8.535156 0-4.710938-3.820313-8.53125-8.535157-8.53125zm0 0"/></svg>