<svg height="512pt" viewBox="0 0 511 512" width="512pt" xmlns="http://www.w3.org/2000/svg"><path d="m204.554688 101.574219c16.171874 0 29.332031-13.160157 29.332031-29.332031 0-16.171876-13.160157-29.332032-29.332031-29.332032-16.171876 0-29.332032 13.160156-29.332032 29.332032 0 16.171874 13.160156 29.332031 29.332032 29.332031zm0-43.664063c7.902343 0 14.332031 6.429688 14.332031 14.332032 0 7.902343-6.429688 14.332031-14.332031 14.332031-7.902344 0-14.332032-6.429688-14.332032-14.332031 0-7.902344 6.429688-14.332032 14.332032-14.332032zm0 0"/><path d="m322.796875 110.976562c1.464844 1.460938 3.382813 2.195313 5.300781 2.195313 1.921875 0 3.84375-.734375 5.308594-2.199219 23.6875-23.710937 23.6875-62.292968 0-86.007812-2.929688-2.929688-7.675781-2.933594-10.605469-.003906-2.933593 2.925781-2.933593 7.675781-.007812 10.605468 17.851562 17.867188 17.851562 46.9375 0 64.800782-2.929688 2.933593-2.925781 7.679687.003906 10.609374zm0 0"/><path d="m293.203125 95.277344c1.464844 1.460937 3.382813 2.195312 5.304687 2.195312 1.917969 0 3.839844-.734375 5.304688-2.199218 15.039062-15.054688 15.042969-39.554688.003906-54.613282-2.929687-2.929687-7.675781-2.929687-10.605468-.003906-2.933594 2.925781-2.9375 7.675781-.007813 10.605469 9.199219 9.210937 9.199219 24.199219-.003906 33.410156-2.925781 2.929687-2.925781 7.679687.003906 10.605469zm0 0"/><path d="m81.011719 113.171875c1.917969 0 3.839843-.734375 5.300781-2.195313 2.929688-2.929687 2.933594-7.675781.003906-10.609374-17.847656-17.863282-17.847656-46.933594 0-64.800782 2.929688-2.929687 2.925782-7.679687-.003906-10.605468-2.929688-2.925782-7.679688-2.925782-10.605469.003906-23.691406 23.714844-23.691406 62.296875 0 86.007812 1.464844 1.464844 3.386719 2.199219 5.304688 2.199219zm0 0"/><path d="m110.601562 97.472656c1.917969 0 3.839844-.734375 5.300782-2.195312 2.933594-2.929688 2.933594-7.675782.003906-10.605469-9.203125-9.210937-9.203125-24.195313 0-33.40625 2.929688-2.933594 2.925781-7.679687-.003906-10.609375-2.929688-2.925781-7.679688-2.925781-10.605469.007812-15.042969 15.058594-15.042969 39.554688.003906 54.609376 1.460938 1.464843 3.382813 2.199218 5.300781 2.199218zm0 0"/><path d="m508.253906 460.546875-60.667968-61.515625c.121093-3.296875-1.015626-6.636719-3.433594-9.175781l-9.972656-10.464844c20.964843-36.664063 16-84.5-14.933594-115.84375-5.917969-6-12.488282-11.097656-19.550782-15.246094-20.238281-66.09375-73.191406-118.023437-139.898437-136.808593l3.929687-7.214844c6.441407-10.683594 9.84375-22.9375 9.84375-35.449219 0-37.949219-30.960937-68.828125-69.015624-68.828125-38.058594 0-69.019532 30.878906-69.019532 68.828125 0 12.511719 3.402344 24.765625 9.84375 35.453125l3.941406 7.226562c-85.761718 24.148438-148.820312 103.058594-148.820312 196.4375 0 112.515626 91.539062 204.054688 204.054688 204.054688 68.90625 0 129.917968-34.347656 166.878906-86.800781 9.601562-1.984375 18.785156-5.449219 27.277344-10.296875l9.746093 10.226562c2.328125 2.441406 5.59375 3.84375 8.957031 3.84375.824219 0 1.636719-.082031 2.429688-.238281l59.734375 60.570313c2.355469 2.390624 5.5 3.707031 8.855469 3.707031 3.351562 0 6.492187-1.3125 8.847656-3.699219l10.96875-11.113281c4.800781-4.863281 4.804688-12.78125.003906-17.652344zm-127.34375-220.636719c-9.148437-2.921875-18.789062-4.445312-28.667968-4.445312-20.859376 0-40.667969 6.761718-56.984376 19.25-1.316406-10.925782-3.027343-21.578125-5.15625-31.855469 26.464844-5.285156 50.160157-13.058594 69.492188-22.96875 8.628906 12.34375 15.800781 25.769531 21.316406 40.019531zm-30.582031-52.160156c-17.621094 8.648438-39.402344 15.566406-63.617187 20.378906-1.507813-5.949218-3.144532-11.769531-4.933594-17.40625-1.253906-3.949218-5.476563-6.132812-9.417969-4.878906-3.949219 1.253906-6.132813 5.46875-4.878906 9.417969 1.59375 5.023437 3.058593 10.207031 4.421875 15.5-19.015625 2.996093-39.214844 4.746093-59.847656 5.085937v-19.511718c1.566406-1.117188 2.894531-2.589844 3.84375-4.339844l26.601562-48.78125c4.097656 5.523437 8.03125 11.925781 11.738281 19.191406 1.882813 3.691406 6.398438 5.160156 10.089844 3.277344 3.6875-1.882813 5.15625-6.398438 3.273437-10.089844-5.289062-10.375-11.105468-19.289062-17.320312-26.65625l2.121094-3.886719c38.941406 10.199219 73.007812 32.53125 97.925781 62.699219zm-74.492187 200.242188c-.160157.796874-.304688 1.609374-.472657 2.402343-20.003906-3.1875-41.316406-5.015625-63.308593-5.355469v-69.59375h46.847656c-4.101563 24.96875 1.523437 51.273438 16.933594 72.546876zm-63.78125-87.546876v-69.59375c21.980468-.339843 43.28125-2.167968 63.273437-5.351562 2.792969 13.402344 4.859375 27.492188 6.214844 42.019531-8.667969 9.835938-14.976563 21.0625-18.9375 32.925781zm-7.5-285.445312c29.785156 0 54.019531 24.148438 54.019531 53.828125 0 9.828125-2.683594 19.449219-7.761719 27.824219-.0625.101562-.117188.199218-.171875.300781l-46.085937 84.519531-46.085938-84.519531c-.054688-.101563-.113281-.199219-.171875-.300781-5.078125-8.375-7.761719-17.996094-7.761719-27.824219 0-29.679687 24.234375-53.828125 54.019532-53.828125zm-24.882813 335.363281c5.238281-8.75 8.007813-18.78125 8.007813-29.019531 0-1.992188-.105469-3.957031-.308594-5.898438h9.683594v69.59375c-12.714844.195313-25.1875.90625-37.324219 2.074219zm-48.328125 57.621094-35.21875-64.917969c-.054688-.101562-.109375-.199218-.171875-.300781-3.886719-6.445313-5.945313-13.855469-5.945313-21.421875 0-22.847656 18.542969-41.4375 41.339844-41.4375 22.789063 0 41.332032 18.589844 41.332032 41.4375 0 7.566406-2.054688 14.976562-5.945313 21.425781-.058594.097657-.117187.195313-.167969.296875zm52.316406-107.539063c-8.308594-20.800781-28.621094-35.539062-52.3125-35.539062-1.199218 0-2.382812.054688-3.5625.125 1.351563-13.6875 3.339844-26.9375 5.957032-39.535156 20.007812 3.183594 41.316406 5.019531 63.3125 5.355468v69.59375zm-46.488281-89.6875c3.601563-13.996093 8.007813-27.027343 13.171875-38.777343 4.9375-11.246094 10.429688-20.875 16.28125-28.738281l26.582031 48.753906c.953125 1.75 2.28125 3.21875 3.847657 4.335937v19.515625c-20.648438-.339844-40.859376-2.089844-59.882813-5.089844zm19.527344-85.714843 2.128906 3.902343c-15.410156 18.308594-28.0625 45.726563-36.523437 79.164063-24.1875-4.8125-45.941407-11.726563-63.546876-20.371094 24.921876-30.164062 59-52.5 97.941407-62.695312zm-107.183594 74.851562c19.3125 9.894531 42.980469 17.664063 69.410156 22.949219-2.9375 14.265625-5.136719 29.460938-6.523437 45.355469-15.203125 5.453125-27.394532 17.277343-33.375 32.246093h-63.371094c1.460938-37.285156 13.773438-71.824218 33.859375-100.550781zm-33.855469 115.550781h59.65625c-.203125 1.9375-.308594 3.90625-.308594 5.898438 0 10.238281 2.769532 20.269531 8.011719 29.019531l24.507813 45.175781c-21.847656 5.121094-41.527344 12.007813-58.015625 20.453126-20.082031-28.726563-32.386719-63.265626-33.851563-100.546876zm43.085938 112.710938c15.816406-7.765625 34.992187-14.128906 56.261718-18.835938l5.960938 10.996094c1.425781 2.628906 3.765625 4.546875 6.496094 5.5 9.195312 28.675782 21.730468 51.746094 36.476562 66.777344-41.957031-9.222656-78.746094-32.410156-105.195312-64.4375zm153.308594 67.90625v-23.0625c0-4.144531-3.359376-7.5-7.5-7.5-4.140626 0-7.5 3.355469-7.5 7.5v23.0625c-17.082032-4.230469-33.777344-22.710938-46.710938-52.148438-3.21875-7.320312-6.136719-15.148437-8.753906-23.390624.039062-.070313.089844-.128907.128906-.203126l9.269531-17.089843c14.886719-1.828125 30.339844-2.925781 46.066407-3.1875v37.957031c0 4.144531 3.359374 7.5 7.5 7.5 4.140624 0 7.5-3.355469 7.5-7.5v-37.957031c20.648437.34375 40.859374 2.09375 59.886718 5.09375-3.605468 13.996093-8.007812 27.023437-13.171875 38.777343-12.9375 29.4375-29.632812 47.914063-46.714843 52.148438zm33.105468-3.460938c17.730469-18.066406 32.265625-47.742187 41.644532-84.820312 3.996093.796875 7.914062 1.652344 11.769531 2.5625 14.535156 10.148438 31.566406 15.945312 49.507812 16.722656.761719.363282 1.523438.71875 2.269531 1.085938-26.453124 32.03125-63.234374 55.226562-105.191406 64.449218zm107.082032-80.441406c-21.300782 0-41.304688-8.386718-56.332032-23.613281-31.136718-31.558594-31.136718-82.90625 0-114.464844 15.027344-15.230469 35.03125-23.617187 56.332032-23.617187 21.296874 0 41.304687 8.386718 56.328124 23.617187 31.136719 31.558594 31.136719 82.90625 0 114.464844-15.023437 15.226563-35.03125 23.613281-56.328124 23.613281zm65.214843.667969-6.203125-6.507813c2.777344-2.246093 5.449219-4.65625 7.996094-7.238281 2.230469-2.257812 4.316406-4.609375 6.277344-7.027343l6.171875 6.476562zm70.980469 64.09375-56.542969-57.328125 7.488281-7.519531 56.507813 57.296875zm0 0"/><path d="m352.242188 276.285156c14.457031.003906 28.054687 5.714844 38.28125 16.082032 7.390624 7.488281 12.464843 16.898437 14.671874 27.203124.867188 4.050782 4.859376 6.632813 8.902344 5.765626 4.050782-.867188 6.632813-4.855469 5.765625-8.902344-2.808593-13.109375-9.257812-25.074219-18.660156-34.601563-13.070313-13.246093-30.460937-20.542969-48.960937-20.546875-18.503907 0-35.890626 7.300782-48.964844 20.546875-26.921875 27.285157-26.921875 71.679688 0 98.96875 13.074218 13.246094 30.464844 20.542969 48.964844 20.542969 18.5-.003906 35.890624-7.296875 48.960937-20.546875 7.132813-7.226563 12.503906-15.714844 15.96875-25.230469 1.414063-3.894531-.59375-8.199218-4.484375-9.613281-3.894531-1.417969-8.195312.589844-9.613281 4.480469-2.71875 7.476562-6.941407 14.148437-12.546875 19.828125-10.230469 10.371093-23.828125 16.078125-38.285156 16.082031-14.457032 0-28.054688-5.710938-38.285157-16.082031-21.191406-21.476563-21.191406-56.417969 0-77.894531 10.230469-10.371094 23.828125-16.082032 38.285157-16.082032zm0 0"/><path d="m131.34375 298.28125c-14.074219 0-25.523438 11.449219-25.523438 25.523438 0 14.074218 11.453126 25.523437 25.523438 25.523437 14.074219 0 25.523438-11.449219 25.523438-25.523437 0-14.074219-11.449219-25.523438-25.523438-25.523438zm0 36.046875c-5.800781 0-10.523438-4.722656-10.523438-10.523437 0-5.800782 4.722657-10.523438 10.523438-10.523438 5.804688 0 10.523438 4.722656 10.523438 10.523438 0 5.800781-4.71875 10.523437-10.523438 10.523437zm0 0"/></svg>