<svg id="Layer_3" enable-background="new 0 0 64 64" height="512" viewBox="0 0 64 64" width="512" xmlns="http://www.w3.org/2000/svg"><g><path d="m52.049 18.345c-1.75-4.146-5.739-6.994-10.216-7.31-2.425-6.03-8.302-10.035-14.833-10.035-8.822 0-16 7.178-16 16 0 .495.029 1.012.089 1.562-5.899 1.719-10.089 7.229-10.089 13.438 0 5.239 2.888 9.999 7.538 12.422l.925-1.773c-3.987-2.078-6.463-6.159-6.463-10.649 0-5.586 3.958-10.512 9.411-11.712.516-.113.854-.608.773-1.13-.125-.811-.184-1.497-.184-2.158 0-7.72 6.28-14 14-14 5.913 0 11.213 3.754 13.188 9.34.14.396.512.662.931.667 4.119.048 7.84 2.683 9.26 6.556.123.333.412.576.761.64 5.714 1.029 9.86 5.991 9.86 11.797 0 4.49-2.476 8.571-6.462 10.648l.925 1.773c4.649-2.422 7.537-7.182 7.537-12.421 0-6.585-4.572-12.24-10.951-13.655z"/><path d="m52.1 39.005-3.449-.345c-.433-2.163-1.292-4.237-2.515-6.073l2.194-2.682c.325-.397.296-.977-.067-1.34l-2.828-2.829c-.363-.364-.943-.394-1.34-.067l-2.682 2.195c-1.835-1.223-3.909-2.081-6.073-2.515l-.345-3.449c-.051-.51-.481-.9-.995-.9h-4c-.514 0-.944.39-.995.9l-.345 3.45c-2.164.434-4.237 1.292-6.073 2.515l-2.682-2.195c-.396-.324-.977-.296-1.34.067l-2.828 2.829c-.363.363-.392.942-.067 1.34l2.194 2.682c-1.223 1.836-2.082 3.91-2.515 6.073l-3.449.344c-.511.051-.9.481-.9.995v4c0 .514.389.944.9.995l3.449.345c.433 2.163 1.292 4.237 2.515 6.073l-2.194 2.682c-.325.397-.296.977.067 1.34l2.828 2.829c.362.363.942.392 1.34.067l2.682-2.195c1.835 1.223 3.909 2.081 6.073 2.515l.345 3.449c.051.51.481.9.995.9h4c.514 0 .944-.39.995-.9l.345-3.449c2.164-.434 4.237-1.292 6.073-2.515l2.682 2.195c.398.325.978.297 1.34-.067l2.828-2.829c.363-.363.392-.942.067-1.34l-2.194-2.682c1.223-1.836 2.082-3.91 2.515-6.073l3.449-.345c.511-.051.9-.481.9-.995v-4c0-.514-.389-.944-.9-.995zm-1.1 4.09-3.302.33c-.454.046-.82.394-.889.845-.362 2.379-1.307 4.66-2.732 6.598-.271.368-.257.872.032 1.226l2.101 2.567-1.549 1.55-2.567-2.102c-.354-.287-.858-.302-1.226-.031-1.938 1.425-4.219 2.369-6.598 2.732-.451.068-.799.435-.844.889l-.331 3.301h-2.19l-.33-3.302c-.045-.454-.393-.82-.844-.889-2.379-.363-4.661-1.308-6.598-2.732-.367-.271-.872-.256-1.226.031l-2.567 2.102-1.549-1.55 2.101-2.567c.289-.354.302-.857.032-1.226-1.425-1.938-2.37-4.219-2.732-6.598-.069-.451-.435-.799-.889-.845l-3.303-.329v-2.189l3.302-.33c.454-.046.82-.394.889-.845.362-2.379 1.307-4.66 2.732-6.598.271-.368.257-.872-.032-1.226l-2.101-2.567 1.549-1.55 2.567 2.102c.354.288.859.302 1.226.031 1.938-1.425 4.219-2.369 6.598-2.732.451-.068.799-.435.844-.889l.331-3.302h2.19l.33 3.302c.045.454.393.82.844.889 2.379.363 4.661 1.308 6.598 2.732.367.271.872.257 1.226-.031l2.567-2.102 1.549 1.55-2.101 2.567c-.289.354-.302.857-.032 1.226 1.425 1.938 2.37 4.219 2.732 6.598.069.451.435.799.889.845l3.303.329z"/><path d="m32 31c-6.065 0-11 4.935-11 11s4.935 11 11 11 11-4.935 11-11-4.935-11-11-11zm0 20c-4.962 0-9-4.037-9-9s4.038-9 9-9 9 4.037 9 9-4.038 9-9 9z"/><path d="m31.364 5.818c-.704-.274-1.438-.483-2.184-.62l-.361 1.967c.621.114 1.232.288 1.816.517z"/><path d="m27 7v-2c-6.617 0-12 5.383-12 12h2c0-5.514 4.486-10 10-10z"/></g></svg>