<svg id="Warstwa_1" data-name="Warstwa 1" xmlns="http://www.w3.org/2000/svg" viewBox="0 0 492 492"><path d="M94.7,420a25.23,25.23,0,0,0,35.6,0h0l.5-.5,56,56a6.1,6.1,0,0,0,8.5,0,44.24,44.24,0,0,0,0-62.6L170.4,388a234.16,234.16,0,0,1,46-22.7l98.5-35.8a6,6,0,0,0,3.6-7.7,6.36,6.36,0,0,0-1.4-2.2L273.5,276a44.25,44.25,0,0,0-61.8-61.8l-43.5-43.5a6.1,6.1,0,0,0-8.5,0,6.36,6.36,0,0,0-1.4,2.2l-35.8,98.5a237.58,237.58,0,0,1-54.8,86.1,25.23,25.23,0,0,0,0,35.6h0Zm92,1.4a32.29,32.29,0,0,1,3.9,41l-51.1-51.1a233.87,233.87,0,0,1,20.7-16.5Zm73.8-194.3a32.36,32.36,0,0,1,4.4,40.2l-44.6-44.6a32.36,32.36,0,0,1,40.2,4.4ZM133.7,275.4l32.6-89.7L301.9,321.3l-89.7,32.6a249.55,249.55,0,0,0-66.5,36.6L97.1,341.9A249.55,249.55,0,0,0,133.7,275.4ZM76.1,365.9c4.7-4.7,9.2-9.5,13.5-14.6l46.8,46.8c-5.1,4.3-9.9,8.8-14.6,13.5a13.22,13.22,0,0,1-18.6,0L76.1,384.5a13.22,13.22,0,0,1,0-18.6Z" transform="translate(-4 -4)"/><path d="M309.5,271.3a6,6,0,0,0,7.8-3.3h0a65.17,65.17,0,0,0-84.8-84.8,6,6,0,1,0,4.5,11.1,53.12,53.12,0,0,1,69.2,29.5,53.68,53.68,0,0,1,0,39.8A6.05,6.05,0,0,0,309.5,271.3Z" transform="translate(-4 -4)"/><path d="M338.7,282.4a6,6,0,0,0,7.8-3.3h0A96.22,96.22,0,0,0,221.3,153.9a6,6,0,0,0,4.4,11.2h.1A84.17,84.17,0,0,1,335.4,274.6a6.05,6.05,0,0,0,3.3,7.8Z" transform="translate(-4 -4)"/><path d="M405.6,4A90.4,90.4,0,1,0,496,94.4,90.43,90.43,0,0,0,405.6,4Zm0,168.8A78.4,78.4,0,1,1,484,94.4,78.4,78.4,0,0,1,405.6,172.8Z" transform="translate(-4 -4)"/><path d="M438.1,83.9a22.4,22.4,0,1,0-22.4-22.5L387.9,77.5a22.4,22.4,0,1,0-.5,34.4l28.5,17.9a22.47,22.47,0,1,0,2.4-12.7l-23.9-15a22.16,22.16,0,0,0,.2-14.6L419,73.3A22.44,22.44,0,0,0,438.1,83.9Zm0-32.9a10.4,10.4,0,1,1-10.4,10.4h0A10.39,10.39,0,0,1,438.1,51Zm-64.9,53.8a10.4,10.4,0,1,1,10.4-10.4A10.39,10.39,0,0,1,373.2,104.8Zm64.9,12.1a10.4,10.4,0,1,1-10.4,10.4h0A10.33,10.33,0,0,1,438.1,116.9Z" transform="translate(-4 -4)"/><path d="M405.6,315.2A90.4,90.4,0,1,0,496,405.6,90.43,90.43,0,0,0,405.6,315.2Zm0,168.8A78.4,78.4,0,1,1,484,405.6,78.4,78.4,0,0,1,405.6,484Z" transform="translate(-4 -4)"/><path d="M442.7,400.5l-49.1-30.4a6.11,6.11,0,0,0-8.3,1.9,5.71,5.71,0,0,0-.9,3.2V436a6,6,0,0,0,6,6,6.2,6.2,0,0,0,3.2-.9l49.1-30.4a6,6,0,0,0,1.9-8.3,5.74,5.74,0,0,0-1.9-1.9Zm-46.3,24.8V386l31.7,19.6Z" transform="translate(-4 -4)"/><path d="M94.4,184.8A90.4,90.4,0,1,0,4,94.4H4A90.56,90.56,0,0,0,94.4,184.8ZM94.4,16A78.4,78.4,0,1,1,16,94.4,78.4,78.4,0,0,1,94.4,16Z" transform="translate(-4 -4)"/><path d="M57.5,130.3h42.9a16,16,0,0,0,16-16v-1l21.9,12a5.94,5.94,0,0,0,8.8-5.3V68.7a6,6,0,0,0-6-6,7.27,7.27,0,0,0-2.9.7l-21.9,12v-1a16,16,0,0,0-16-16H57.5a16,16,0,0,0-16,16v39.8A16.13,16.13,0,0,0,57.5,130.3Zm77.7-51.5v31.1L116.4,99.6V89.1ZM53.5,74.5a4,4,0,0,1,4-4h42.9a4,4,0,0,1,4,4v39.8a4,4,0,0,1-4,4H57.5a4,4,0,0,1-4-4Z" transform="translate(-4 -4)"/></svg>