<svg id="Layer_1_1_" enable-background="new 0 0 64 64" height="512" viewBox="0 0 64 64" width="512" xmlns="http://www.w3.org/2000/svg"><path d="m56.085 26.341c1.072-1.931 1.636-4.093 1.636-6.31 0-2.269-.603-4.513-1.745-6.49-3.408-5.899-10.778-8.113-16.827-5.238-.545-.907-1.198-1.745-1.952-2.499-2.452-2.453-5.719-3.804-9.197-3.804-6.81 0-12.409 5.274-12.946 11.968-4.547.083-8.757 2.552-11.029 6.491-3.413 5.901-1.638 13.395 3.891 17.2-1.073 1.931-1.636 4.093-1.636 6.311 0 2.269.603 4.513 1.745 6.49 2.406 4.166 6.79 6.5 11.288 6.5 1.872 0 3.765-.408 5.543-1.253.544.904 1.196 1.739 1.947 2.491 2.452 2.451 5.719 3.802 9.197 3.802 6.81 0 12.409-5.274 12.946-11.968 4.547-.083 8.757-2.552 11.029-6.491 3.414-5.901 1.639-13.395-3.89-17.2zm-1.841-11.801c.966 1.674 1.477 3.572 1.477 5.49 0 1.845-.464 3.644-1.342 5.257l-13.879-8.014c-.309-.178-.69-.178-.999 0l-14.513 8.359.011-6.914 14.192-8.195c.016-.008.032-.017.047-.025 5.243-3.017 11.977-1.203 15.006 4.042zm-15.228 21.518-7.025 4.046-7.019-4.065.013-8.098 7.025-4.046 7.019 4.065zm-22.016-21.076c.009-6.055 4.943-10.982 11-10.982 2.944 0 5.708 1.143 7.783 3.217.617.617 1.153 1.3 1.604 2.038l-13.887 8.018c-.309.179-.5.508-.5.864l-.027 16.745-5.973-3.458zm-11.244 6.478c1.907-3.308 5.431-5.379 9.244-5.481v16.021c0 .356.19.687.499.865l14.491 8.391-5.99 3.45-14.151-8.172c-.025-.018-.051-.034-.078-.05-5.247-3.04-7.049-9.779-4.015-15.024zm4 28c-.966-1.674-1.477-3.572-1.477-5.49 0-1.845.464-3.644 1.342-5.257l13.879 8.014c.155.089.327.134.5.134.172 0 .345-.045.499-.134l14.513-8.359-.011 6.914-14.192 8.195c-.016.008-.032.017-.047.025-5.243 3.016-11.976 1.202-15.006-4.042zm37.244-.442c-.009 6.055-4.943 10.982-11 10.982-2.944 0-5.708-1.143-7.783-3.217-.617-.617-1.153-1.3-1.604-2.038l13.887-8.018c.309-.179.5-.508.5-.864l.027-16.745 5.973 3.458zm11.244-6.478c-1.907 3.308-5.431 5.379-9.244 5.481v-16.021c0-.356-.19-.687-.499-.865l-14.491-8.392 5.99-3.449 14.151 8.172c.025.018.051.034.078.05 5.247 3.04 7.049 9.779 4.015 15.024z"/></svg>